<svg xmlns="http://www.w3.org/2000/svg" xmlns:xlink="http://www.w3.org/1999/xlink" width="500" zoomAndPan="magnify" viewBox="0 0 375 374.999991" height="500" preserveAspectRatio="xMidYMid meet" version="1.0"><defs><clipPath id="2f12a6363e"><path d="M 84 166 L 349.554688 166 L 349.554688 208 L 84 208 Z M 84 166 " clip-rule="nonzero"/></clipPath><clipPath id="2bf3daf31a"><path d="M 135 65 L 349.554688 65 L 349.554688 107 L 135 107 Z M 135 65 " clip-rule="nonzero"/></clipPath><clipPath id="7dff02d82d"><path d="M 246 115 L 349.554688 115 L 349.554688 157 L 246 157 Z M 246 115 " clip-rule="nonzero"/></clipPath><clipPath id="c8502cdbcd"><path d="M 17.304688 166 L 65 166 L 65 208 L 17.304688 208 Z M 17.304688 166 " clip-rule="nonzero"/></clipPath><clipPath id="80116ef192"><path d="M 145 216 L 349.554688 216 L 349.554688 258 L 145 258 Z M 145 216 " clip-rule="nonzero"/></clipPath><clipPath id="04cd083481"><path d="M 165 267 L 349.554688 267 L 349.554688 309 L 165 309 Z M 165 267 " clip-rule="nonzero"/></clipPath></defs><g clip-path="url(#2f12a6363e)"><path fill="#0091ff" d="M 464.929688 166.378906 L 250.753906 166.378906 L 241.609375 182.191406 L 220.429688 182.191406 L 211.285156 166.378906 C 203.398438 166.378906 104.582031 166.378906 96.699219 166.378906 L 84.867188 186.863281 L 96.699219 207.351562 C 104.582031 207.351562 203.398438 207.351562 211.285156 207.351562 L 220.429688 191.539062 L 241.609375 191.539062 L 250.753906 207.351562 L 464.929688 207.351562 C 467.289062 193.816406 467.289062 179.953125 464.929688 166.378906 Z M 464.929688 166.378906 " fill-opacity="1" fill-rule="nonzero"/></g><g clip-path="url(#2bf3daf31a)"><path fill="#0091ff" d="M 170.878906 106.625 L 180.027344 90.8125 L 201.203125 90.8125 L 210.351562 106.625 L 436.152344 106.625 C 393.714844 58.78125 346.117188 65.609375 288.71875 65.609375 L 210.351562 65.609375 L 201.203125 81.421875 L 180.027344 81.421875 L 170.878906 65.609375 L 147.222656 65.609375 L 135.394531 86.097656 L 147.222656 106.585938 L 170.878906 106.585938 Z M 170.878906 106.625 " fill-opacity="1" fill-rule="nonzero"/></g><g clip-path="url(#7dff02d82d)"><path fill="#0091ff" d="M 312.335938 131.828125 L 291.160156 131.828125 L 282.011719 116.015625 L 258.355469 116.015625 L 246.527344 136.503906 L 258.355469 156.988281 L 282.011719 156.988281 L 291.160156 141.175781 L 312.335938 141.175781 L 321.484375 156.988281 L 462.9375 156.988281 C 459.117188 142.03125 452.492188 128.167969 443.671875 115.972656 L 321.484375 115.972656 Z M 312.335938 131.828125 " fill-opacity="1" fill-rule="nonzero"/></g><g clip-path="url(#c8502cdbcd)"><path fill="#0091ff" d="M 29.140625 166.378906 L 17.3125 186.863281 L 29.140625 207.394531 L 52.839844 207.394531 L 64.667969 186.863281 L 52.839844 166.378906 Z M 29.140625 166.378906 " fill-opacity="1" fill-rule="nonzero"/></g><path fill="#0091ff" d="M 178.96875 136.503906 L 190.796875 156.988281 L 214.496094 156.988281 L 226.324219 136.503906 L 214.496094 116.015625 L 190.796875 116.015625 Z M 178.96875 136.503906 " fill-opacity="1" fill-rule="nonzero"/><path fill="#0091ff" d="M 109.988281 267.105469 L 98.121094 287.632812 L 109.988281 308.121094 L 133.648438 308.121094 L 145.476562 287.632812 L 133.648438 267.105469 Z M 109.988281 267.105469 " fill-opacity="1" fill-rule="nonzero"/><g clip-path="url(#80116ef192)"><path fill="#0091ff" d="M 211.285156 232.554688 L 190.105469 232.554688 L 180.960938 216.742188 L 157.304688 216.742188 L 145.476562 237.226562 L 157.304688 257.714844 L 180.960938 257.714844 L 190.105469 241.902344 L 211.285156 241.902344 L 220.429688 257.714844 L 443.632812 257.714844 C 452.453125 245.519531 459.078125 231.660156 462.898438 216.699219 C 388.796875 216.699219 294.492188 216.699219 220.390625 216.699219 Z M 211.285156 232.554688 " fill-opacity="1" fill-rule="nonzero"/></g><g clip-path="url(#04cd083481)"><path fill="#0091ff" d="M 271.933594 282.957031 L 250.753906 282.957031 L 241.609375 267.144531 C 220.269531 267.144531 198.886719 267.144531 177.507812 267.144531 L 165.679688 287.632812 L 177.507812 308.121094 C 198.886719 308.121094 220.226562 308.121094 241.609375 308.121094 L 250.753906 292.308594 L 271.933594 292.308594 L 281.078125 308.121094 C 341.683594 308.121094 392.617188 316.207031 436.152344 267.105469 L 281.078125 267.105469 Z M 271.933594 282.957031 " fill-opacity="1" fill-rule="nonzero"/></g><path stroke-linecap="round" transform="matrix(0, 0.75, -0.75, 0, 357.692823, 41.777342)" fill="none" stroke-linejoin="miter" d="M 8.500003 8.501889 L 380.098986 8.501889 " stroke="#0091ff" stroke-width="17" stroke-opacity="1" stroke-miterlimit="4"/></svg>